<svg xmlns="http://www.w3.org/2000/svg" xmlns:xlink="http://www.w3.org/1999/xlink" width="375" height="667" viewBox="0 0 375 667">
  <defs>
    <clipPath id="clip-b">
      <rect width="375" height="667"/>
    </clipPath>
  </defs>
  <g id="b" clip-path="url(#clip-b)">
    <rect width="375" height="667" fill="#fff"/>
    <g id="Ellipse_1" data-name="Ellipse 1" transform="translate(69 17)" fill="#fff" stroke="#707070" stroke-width="1">
      <circle cx="27" cy="27" r="27" stroke="none"/>
      <circle cx="27" cy="27" r="26.5" fill="none"/>
    </g>
    <text id="freerobux2019HACK" transform="translate(142 51)" fill="#343434" font-size="20" font-family="Roboto-Medium, Roboto" font-weight="500"><tspan x="0" y="0">freerobux2019HACK</tspan></text>
    <g id="Rectangle_1" data-name="Rectangle 1" transform="translate(17 89)" fill="#fff" stroke="#b1b1b1" stroke-width="1">
      <path d="M17,0H269a17,17,0,0,1,17,17v85a17,17,0,0,1-17,17H0a0,0,0,0,1,0,0V17A17,17,0,0,1,17,0Z" stroke="none"/>
      <path d="M17,.5H269A16.5,16.5,0,0,1,285.5,17v85A16.5,16.5,0,0,1,269,118.5H1a.5.5,0,0,1-.5-.5V17A16.5,16.5,0,0,1,17,.5Z" fill="none"/>
    </g>
    <g id="Group_1" data-name="Group 1" transform="translate(1 -16)">
      <text id="win_free_iphone_x_now_open_link_for_more_info" data-name="win free iphone x now!!!! open link for more info" transform="translate(36 125)" fill="#343434" font-size="20" font-family="Roboto-Regular, Roboto"><tspan x="0" y="19">win free iphone x now!!!! </tspan><tspan x="0" y="43">open link for more info</tspan></text>
      <text id="https:_fipnh.tk_s8Aja8" data-name="https://fipnh.tk/s8Aja8" transform="translate(36 199)" fill="#717bd8" font-size="20" font-family="Roboto-Regular, Roboto"><tspan x="0" y="0">https://fipnh.tk/s8Aja8</tspan></text>
    </g>
    <rect id="Rectangle_2" data-name="Rectangle 2" width="134" height="52" rx="17" transform="translate(226 231)" fill="#e6e6e6"/>
    <g id="Rectangle_3" data-name="Rectangle 3" transform="translate(17 595)" fill="none" stroke="#b1b1b1" stroke-width="1">
      <rect width="341" height="52" rx="26" stroke="none"/>
      <rect x="0.5" y="0.5" width="340" height="51" rx="25.5" fill="none"/>
    </g>
    <text id="Message..." transform="translate(37 628)" fill="#343434" font-size="20" font-family="Roboto-Regular, Roboto" opacity="0.61"><tspan x="0" y="0">Message...</tspan></text>
    <g id="arrow_back_ios-24px" transform="translate(28 26)" opacity="0.73">
      <path id="Path_5" data-name="Path 5" d="M17.991,4.829,15.262,2.1,0,17.362,15.262,32.625,17.991,29.9,5.457,17.362Z" transform="translate(0 1.137)"/>
      <path id="Path_6" data-name="Path 6" d="M0,0H37V37H0Z" fill="none"/>
    </g>
    <text id="something" transform="translate(232 244)" fill="#343434" font-size="20" font-family="Roboto-Regular, Roboto"><tspan x="13.498" y="19">something</tspan></text>
  </g>
</svg>
